# xmcd CD database file
#
# Track frame offsets:
#	182
#	18225
#	33542
#	50242
#	64237
#	79155
#	96812
#	113755
#	127345
#	145267
#	163820
#	182737
#	200672
#
# Disc length: 2924 seconds
#
# Revision: 0
# Processed by: cddbd v1.5.2PL0 Copyright (c) Steve Scherf et al.
# Submitted via: CdAid (MTCDDB.DLL V2003.12.21)
#
DISCID=c20b6a0d
DTITLE=Marcos and Mateus - Canto Porque Sou Feliz Volume 3
DYEAR=1996
DGENRE=Folk
TTITLE0=Anjo Azul
TTITLE1=Canto Porque Sou Feliz
TTITLE2=Você Dançou
TTITLE3=Sua Ausência
TTITLE4=Nunca Mais Deixarei de Te Amar
TTITLE5=Coração Apaixonado
TTITLE6=Toca Sanfoneiro
TTITLE7=Homem de Aço
TTITLE8=Meus Tempos de Criança
TTITLE9=Buscando Carinhos
TTITLE10=Enquanto Viva Uma paixão
TTITLE11=Quando a Saudade Chegar
TTITLE12=Pra Sentir Saudade
EXTD=ID3G:  80 YEAR: 1996
EXTT0=
EXTT1=
EXTT2=
EXTT3=
EXTT4=
EXTT5=
EXTT6=
EXTT7=
EXTT8=
EXTT9=
EXTT10=
EXTT11=
EXTT12=
PLAYORDER=
